<?xml version="1.0" ?><!DOCTYPE svg  PUBLIC '-//W3C//DTD SVG 1.1//EN'  'http://www.w3.org/Graphics/SVG/1.1/DTD/svg11.dtd'><svg enable-background="new 0 0 512 512" height="512px" id="Layer_1" version="1.1" viewBox="0 0 512 512" width="512px" xml:space="preserve" xmlns="http://www.w3.org/2000/svg" xmlns:xlink="http://www.w3.org/1999/xlink"><path d="M511.999,432c0,44.183-35.816,80-80,80H80c-44.183,0-80-35.817-80-80V80C0,35.817,35.817,0,80,0h351.999  c44.184,0,80,35.817,80,80V432z" fill="#FAA21D"/><path d="M353.395,186.197c12.949,12.738,20.985,30.445,20.985,50.033c0,4.81-0.486,9.506-1.407,14.045h11.216  c26.406,0,47.813,21.381,47.813,47.758c0,26.375-21.406,47.755-47.813,47.755h-6.557L385,320l-38-46.688l-52.938,0.915  l-64.798-64.798l-18.917,18.917l14.453,14.453l-0.929,1.652l-39.773-39.772l-22.411,22.409l15.645,15.645l-3.619,41.836  l-34.248-34.248l-18.451,18.45l6.903,6.902v14.027L95.28,257.064l-6.425,77.355l32.056,32.323l0,0L266.167,512H432  c44.184,0,80-35.817,80-80v-87.501L353.395,186.197z" fill="#BA5800"/><g><defs><path d="M353.395,186.197c12.949,12.738,20.985,30.445,20.985,50.033c0,4.81-0.486,9.506-1.407,14.045h11.216    c26.406,0,47.813,21.381,47.813,47.758c0,26.375-21.406,47.755-47.813,47.755h-6.557L385,320l-38-46.688l-52.938,0.915    l-64.798-64.798l-18.917,18.917l14.453,14.453l-0.929,1.652l-39.773-39.772l-22.411,22.409l15.645,15.645l-3.619,41.836    l-34.248-34.248l-18.451,18.45l6.903,6.902v14.027L95.28,257.064l-6.425,77.355l32.056,32.323l0,0L266.167,512H432    c44.184,0,80-35.817,80-80v-87.501L353.395,186.197z" id="SVGID_1_"/></defs><clipPath id="SVGID_2_"/></g><g><path d="M229.184,209.434c-7.229-3.717-15.189-6.062-23.59-6.721v143.075h23.59V209.434z" fill="#FFFFFF"/><path d="M95.238,257.064C81.317,265.413,72,280.635,72,298.033c0,17.396,9.317,32.617,23.238,40.968V257.064z" fill="#FFFFFF"/><path d="M384.188,250.275h-11.216c0.921-4.539,1.407-9.235,1.407-14.045c0-38.787-31.479-70.23-70.313-70.23   c-21.586,0-40.893,9.721-53.789,25.014v154.774H252h52.031h2.145h5.977h72.035c26.406,0,47.813-21.38,47.813-47.755   C432,271.656,410.594,250.275,384.188,250.275z" fill="#FFFFFF"/><path d="M184.5,204.68c-8.815,2.387-16.917,6.68-23.906,12.439v128.669h15.504h8.402V204.68z" fill="#FFFFFF"/><path d="M139.5,250.321v95.467h-19.688c-1.172,0-2.331-0.058-3.48,0.212v-95.679H139.5z" fill="#FFFFFF"/></g></svg>