<?xml version="1.0" ?><!DOCTYPE svg  PUBLIC '-//W3C//DTD SVG 1.1//EN'  'http://www.w3.org/Graphics/SVG/1.1/DTD/svg11.dtd'><svg enable-background="new 0 0 512 512" height="512px" id="Layer_1" version="1.1" viewBox="0 0 512 512" width="512px" xml:space="preserve" xmlns="http://www.w3.org/2000/svg" xmlns:xlink="http://www.w3.org/1999/xlink"><g><path clip-rule="evenodd" d="M25.701,0h460.897C500.509,0,512,11.492,512,25.707v460.892   c0,13.91-11.491,25.401-25.401,25.401H25.701C11.492,512,0,500.509,0,486.599V25.707C0,11.492,11.492,0,25.701,0L25.701,0z    M208.669,156.052l27.221-77.724h-22.684l-15.119,50.808h-0.31l-15.718-50.808h-22.684l26.91,77.724v55.34h22.384V156.052z    M269.766,180.245c0,5.746-1.22,9.678-3.039,12.396c-1.809,2.423-4.836,3.633-8.164,3.633c-3.627,0-6.645-1.209-8.463-3.633   c-1.819-2.718-2.718-6.65-2.718-12.396v-36.593c0-5.746,0.899-9.983,2.718-12.401c1.819-2.418,4.836-3.932,8.463-3.932   c3.328,0,6.355,1.514,8.164,3.932c1.819,2.418,3.039,6.655,3.039,12.401V180.245z M227.116,176.313   c0,5.446,0.61,10.583,1.509,15.119c1.209,4.537,3.028,8.469,5.446,11.492c2.418,3.328,5.746,5.746,9.673,7.564   c3.938,1.814,8.774,2.718,14.819,2.718c5.746,0,10.583-0.904,14.53-2.718c3.927-1.819,7.255-4.237,9.673-7.564   c2.418-3.023,4.237-6.955,5.436-11.492c1.22-4.537,1.509-9.673,1.509-15.119v-29.034c0-5.441-0.289-10.282-1.509-14.819   c-1.198-4.537-3.018-8.469-5.436-11.791c-2.418-3.328-5.746-5.746-9.673-7.565c-3.947-1.813-8.784-2.718-14.53-2.718   c-6.045,0-10.881,0.904-14.819,2.718c-3.927,1.819-7.255,4.237-9.673,7.565c-2.418,3.322-4.237,7.254-5.446,11.791   c-0.899,4.537-1.509,9.378-1.509,14.819V176.313z M332.659,112.199v77.724c-2.418,1.813-4.526,3.328-6.655,4.537   c-2.107,1.209-4.236,1.814-6.345,1.814s-3.927-0.605-5.146-1.814c-1.509-0.909-2.108-2.723-2.108-5.446v-76.814h-20.275v80.142   c0,6.655,1.529,11.797,4.547,15.424c3.018,3.627,6.944,5.441,12.401,5.441c3.018,0,5.436-0.3,7.564-0.904   c2.418-0.305,4.216-1.209,6.035-2.119c1.818-0.904,3.638-2.113,5.146-3.627c1.818-1.514,3.638-3.328,5.746-5.141v9.978h19.346   v-99.193H332.659z M207.76,295.767v76.824c0,2.418,0.61,4.227,1.819,5.436c1.209,1.21,2.718,1.52,4.836,1.52   c1.819,0,3.927-0.609,5.746-1.818c1.819-1.21,3.627-2.719,6.046-4.237v-77.724h18.147v98.898h-17.238v-9.684l-5.136,4.847   c-1.519,1.509-3.328,2.719-4.847,3.628c-1.809,0.909-3.328,1.809-5.436,2.418c-1.819,0.6-4.237,0.6-6.965,0.6   c-4.836,0-8.764-1.809-11.182-5.436c-2.729-3.638-4.237-8.774-4.237-15.13v-80.142H207.76z M347.479,314.522   c-1.509,2.719-2.418,6.655-2.418,12.401v5.137h20.255v-5.137c0-5.746-0.909-9.683-2.707-12.401   c-1.819-2.418-4.237-3.627-7.565-3.627C352.025,310.896,349.298,312.104,347.479,314.522L347.479,314.522z M277.02,316.031v58.368   c1.819,1.509,3.328,2.718,5.146,3.938c1.509,0.899,3.328,1.209,5.126,1.209c1.22,0,2.418,0,3.638-0.609   c0.909-0.3,1.819-1.209,2.729-2.419c0.909-1.209,1.509-2.718,1.798-4.836c0.62-2.118,0.62-4.837,0.62-8.164v-36.594   c0-3.327,0-6.056-0.62-8.174c-0.289-2.108-0.889-3.628-1.798-4.837s-1.819-2.118-2.729-2.418c-1.22-0.6-2.418-0.6-3.638-0.6   c-1.798,0-3.617,0.3-5.126,1.509C280.348,313.313,278.839,314.522,277.02,316.031L277.02,316.031z M168.448,281.557v113.108   h-20.266V281.557h-19.656V261.9h59.577v19.656H168.448z M258.563,394.665V261.9h18.457v42.34l4.526-4.537   c1.509-1.209,3.039-2.118,4.548-3.027c1.509-1.209,3.018-1.809,4.526-2.119c1.509-0.599,3.327-0.599,5.146-0.599   c5.745,0,10.582,2.118,13.909,6.955c3.328,4.536,4.837,11.491,4.837,20.564v47.476c0,9.073-1.509,16.028-4.837,20.565   c-3.327,4.847-8.164,6.955-13.909,6.955c-4.526,0-8.164-0.899-10.893-2.718c-2.708-1.819-5.746-4.837-8.764-9.373h-0.31v10.282   H258.563z M326.604,330.551c0-5.146,0.62-10.282,1.529-14.818c0.91-4.537,2.708-8.475,4.837-11.792   c2.418-3.027,5.436-5.746,8.764-7.265c3.637-1.809,8.163-2.718,13.31-2.718c5.437,0,9.674,0.909,13.311,2.718   c3.617,1.519,6.655,4.237,8.764,7.265c2.418,3.317,3.927,7.255,5.146,11.792c0.909,4.536,1.509,9.673,1.509,14.818v18.447h-38.712   v14.52c0,5.746,0.909,9.973,2.418,12.391c1.819,2.429,4.547,3.638,7.564,3.638c3.328,0,5.746-1.209,7.565-3.638   c1.798-2.418,2.707-6.645,2.707-12.391v-2.118h18.457c-0.31,5.136-0.909,9.972-1.818,14.209c-1.199,4.237-2.729,8.164-5.146,11.192   c-2.108,3.027-5.126,5.446-8.764,7.255c-3.327,1.818-7.854,2.418-13.001,2.418s-9.673-0.6-13.31-2.418   c-3.328-1.809-6.346-4.537-8.764-7.555c-2.129-3.328-3.927-7.265-4.837-11.802c-0.909-4.537-1.529-9.373-1.529-14.819V330.551z    M132.764,230.144c-13.61,3.328-21.475,12.096-26.311,24.802c-9.373,23.283-10.893,121.872,0,148.183   c4.836,13.011,12.701,21.774,26.311,25.102c26.611,6.355,212.896,8.164,246.461,0c13.62-3.327,21.475-12.091,26.621-25.102   c10.582-26.611,9.384-124.601,0-148.183c-5.146-12.706-13.001-21.475-26.621-24.802   C346.569,221.979,156.957,224.098,132.764,230.144L132.764,230.144z" fill="#010101" fill-rule="evenodd"/></g></svg>